<mxfile host="app.diagrams.net" agent="Mozilla/5.0 (Windows NT 10.0; Win64; x64) AppleWebKit/537.36 (KHTML, like Gecko) Chrome/134.0.0.0 Safari/537.36" version="26.1.1">
  <diagram name="Page-1" id="wj0IIMq1TzQ7RWc-9_ZR">
    <mxGraphModel dx="1017" dy="1124" grid="1" gridSize="10" guides="1" tooltips="1" connect="1" arrows="1" fold="1" page="1" pageScale="1" pageWidth="850" pageHeight="1100" math="0" shadow="0">
      <root>
        <mxCell id="0" />
        <mxCell id="1" parent="0" />
        <mxCell id="0MmbwpuBZZG6K4D-VPkR-3" value="" style="edgeStyle=none;curved=1;rounded=0;orthogonalLoop=1;jettySize=auto;html=1;fontSize=12;startSize=8;endSize=8;" edge="1" parent="1" source="0MmbwpuBZZG6K4D-VPkR-1" target="0MmbwpuBZZG6K4D-VPkR-2">
          <mxGeometry relative="1" as="geometry" />
        </mxCell>
        <mxCell id="0MmbwpuBZZG6K4D-VPkR-1" value="Start" style="ellipse;whiteSpace=wrap;html=1;" vertex="1" parent="1">
          <mxGeometry x="365" y="30" width="155" height="80" as="geometry" />
        </mxCell>
        <mxCell id="0MmbwpuBZZG6K4D-VPkR-5" value="" style="edgeStyle=none;curved=1;rounded=0;orthogonalLoop=1;jettySize=auto;html=1;fontSize=12;startSize=8;endSize=8;" edge="1" parent="1" source="0MmbwpuBZZG6K4D-VPkR-2" target="0MmbwpuBZZG6K4D-VPkR-4">
          <mxGeometry relative="1" as="geometry" />
        </mxCell>
        <mxCell id="0MmbwpuBZZG6K4D-VPkR-2" value="Input Miles Driven" style="shape=parallelogram;perimeter=parallelogramPerimeter;whiteSpace=wrap;html=1;fixedSize=1;" vertex="1" parent="1">
          <mxGeometry x="365" y="140" width="155" height="70" as="geometry" />
        </mxCell>
        <mxCell id="0MmbwpuBZZG6K4D-VPkR-11" value="" style="edgeStyle=none;curved=1;rounded=0;orthogonalLoop=1;jettySize=auto;html=1;fontSize=12;startSize=8;endSize=8;" edge="1" parent="1" source="0MmbwpuBZZG6K4D-VPkR-4" target="0MmbwpuBZZG6K4D-VPkR-10">
          <mxGeometry relative="1" as="geometry" />
        </mxCell>
        <mxCell id="0MmbwpuBZZG6K4D-VPkR-4" value="Input Gallons Used" style="shape=parallelogram;perimeter=parallelogramPerimeter;whiteSpace=wrap;html=1;fixedSize=1;" vertex="1" parent="1">
          <mxGeometry x="365" y="230" width="155" height="70" as="geometry" />
        </mxCell>
        <mxCell id="0MmbwpuBZZG6K4D-VPkR-13" value="" style="edgeStyle=none;curved=1;rounded=0;orthogonalLoop=1;jettySize=auto;html=1;fontSize=12;startSize=8;endSize=8;" edge="1" parent="1" source="0MmbwpuBZZG6K4D-VPkR-10">
          <mxGeometry relative="1" as="geometry">
            <mxPoint x="442.5" y="470" as="targetPoint" />
          </mxGeometry>
        </mxCell>
        <mxCell id="0MmbwpuBZZG6K4D-VPkR-10" value="if miles OR gallons&lt;div&gt;= 0&lt;/div&gt;" style="rhombus;whiteSpace=wrap;html=1;" vertex="1" parent="1">
          <mxGeometry x="377.5" y="330" width="130" height="120" as="geometry" />
        </mxCell>
        <mxCell id="0MmbwpuBZZG6K4D-VPkR-15" value="" style="edgeStyle=none;curved=1;rounded=0;orthogonalLoop=1;jettySize=auto;html=1;fontSize=12;startSize=8;endSize=8;" edge="1" parent="1" target="0MmbwpuBZZG6K4D-VPkR-14">
          <mxGeometry relative="1" as="geometry">
            <mxPoint x="442.5" y="550" as="sourcePoint" />
          </mxGeometry>
        </mxCell>
        <mxCell id="0MmbwpuBZZG6K4D-VPkR-21" value="" style="edgeStyle=none;curved=1;rounded=0;orthogonalLoop=1;jettySize=auto;html=1;fontSize=12;startSize=8;endSize=8;" edge="1" parent="1" target="0MmbwpuBZZG6K4D-VPkR-20">
          <mxGeometry relative="1" as="geometry">
            <mxPoint x="442.5" y="800" as="sourcePoint" />
          </mxGeometry>
        </mxCell>
        <mxCell id="0MmbwpuBZZG6K4D-VPkR-26" value="" style="edgeStyle=none;curved=1;rounded=0;orthogonalLoop=1;jettySize=auto;html=1;fontSize=12;startSize=8;endSize=8;" edge="1" parent="1" source="0MmbwpuBZZG6K4D-VPkR-14" target="0MmbwpuBZZG6K4D-VPkR-25">
          <mxGeometry relative="1" as="geometry" />
        </mxCell>
        <mxCell id="0MmbwpuBZZG6K4D-VPkR-14" value="else" style="rhombus;whiteSpace=wrap;html=1;" vertex="1" parent="1">
          <mxGeometry x="378.75" y="580" width="127.5" height="120" as="geometry" />
        </mxCell>
        <mxCell id="0MmbwpuBZZG6K4D-VPkR-23" value="" style="edgeStyle=none;curved=1;rounded=0;orthogonalLoop=1;jettySize=auto;html=1;fontSize=12;startSize=8;endSize=8;" edge="1" parent="1" source="0MmbwpuBZZG6K4D-VPkR-20" target="0MmbwpuBZZG6K4D-VPkR-22">
          <mxGeometry relative="1" as="geometry" />
        </mxCell>
        <mxCell id="0MmbwpuBZZG6K4D-VPkR-20" value="output miles_per_gallon" style="shape=parallelogram;perimeter=parallelogramPerimeter;whiteSpace=wrap;html=1;fixedSize=1;" vertex="1" parent="1">
          <mxGeometry x="352.5" y="830" width="180" height="70" as="geometry" />
        </mxCell>
        <mxCell id="0MmbwpuBZZG6K4D-VPkR-22" value="End" style="ellipse;whiteSpace=wrap;html=1;" vertex="1" parent="1">
          <mxGeometry x="382.5" y="930" width="120" height="80" as="geometry" />
        </mxCell>
        <mxCell id="0MmbwpuBZZG6K4D-VPkR-24" value="Output &quot;You must enter a value greater than 0&quot;" style="shape=parallelogram;perimeter=parallelogramPerimeter;whiteSpace=wrap;html=1;fixedSize=1;" vertex="1" parent="1">
          <mxGeometry x="360.75" y="470" width="163.5" height="80" as="geometry" />
        </mxCell>
        <mxCell id="0MmbwpuBZZG6K4D-VPkR-25" value="miles_per_gallon = miles driven/gallons used" style="whiteSpace=wrap;html=1;" vertex="1" parent="1">
          <mxGeometry x="365" y="730" width="155" height="70" as="geometry" />
        </mxCell>
      </root>
    </mxGraphModel>
  </diagram>
</mxfile>
